<svg width="19" height="10" viewBox="0 0 19 10" fill="none" xmlns="http://www.w3.org/2000/svg">
<path fill-rule="evenodd" clip-rule="evenodd" d="M2.10541 0.355751L9.49917 7.62744L16.8913 0.35575C17.3614 -0.105994 18.1393 -0.120129 18.6243 0.325909C18.8593 0.541076 18.9934 0.831629 19 1.1426L19 1.16459C19 1.46613 18.8792 1.75198 18.6557 1.97028L11.1693 9.3362C10.1861 10.2346 8.71626 10.2079 7.82908 9.3362L0.340971 1.97029C0.120829 1.75355 1.07272e-07 1.46771 8.54623e-08 1.1693L8.52328e-08 1.16616L8.50032e-08 1.16302C6.19304e-08 0.847336 0.137381 0.542648 0.374075 0.32434C0.860703 -0.120128 1.63865 -0.105993 2.10541 0.355751Z" fill="#BDBDBD"/>
</svg>